<?xml version="1.0" standalone="no"?><!DOCTYPE svg PUBLIC "-//W3C//DTD SVG 1.1//EN" "http://www.w3.org/Graphics/SVG/1.1/DTD/svg11.dtd"><svg t="1735223283994" class="icon" viewBox="0 0 1024 1024" version="1.1" xmlns="http://www.w3.org/2000/svg" p-id="2449" xmlns:xlink="http://www.w3.org/1999/xlink" width="200" height="200"><path d="M32 32m180 0l600 0q180 0 180 180l0 600q0 180-180 180l-600 0q-180 0-180-180l0-600q0-180 180-180Z" fill="#4682f0" p-id="2450"></path><path d="M512 169.16a53.94000001 53.94000001 0 0 1 20.28 103.8v69.90000001a519.42000001 519.42000001 0 0 1 179.58000001 34.08c62.52 29.94000001 86.70000001 94.32 86.69999999 208.37999999 0 93.78000001-25.56 163.86000001-71.64 188.64-54.84 26.70000001-106.8 38.28-212.58000001 38.04-105.72-0.30000001-157.14000001-11.88-213.95999998-38.82000001-44.88-24-70.2-94.32-70.20000002-187.07999998 0-114.84 22.74000001-179.22000001 85.20000002-209.16000002a519.84 519.84 0 0 1 198.95999998-33.95999998l-17.63999998-0.12V274.69999999a54 54 0 0 1-38.28-44.87999998L458 223.04c0-29.76 24.18000001-53.88 54-53.88z m344.28 324.90000001a165 165 0 0 1 0 140.69999999 18.18000001 18.18000001 0 0 1-23.4 8.57999999 16.50000001 16.50000001 0 0 1-9.12-22.19999998 132.72 132.72 0 0 0 0-113.46000001 16.50000001 16.50000001 0 0 1 9.12-22.2 18.18000001 18.18000001 0 0 1 23.4 8.57999999z m-688.56-2e-8a18.18000001 18.18000001 0 0 1 23.4-8.57999999c9 3.72 13.08 13.68 9.12 22.2a132.72 132.72 0 0 0 0 113.4 16.50000001 16.50000001 0 0 1-9.12 22.26000001 18.18000001 18.18000001 0 0 1-23.4-8.58000001 165 165 0 0 1 0-140.70000001z" fill="#FFFFFF" p-id="2451"></path><path d="M396.44 495.8c13.02000001 0 23.58000001 10.02000001 23.58000001 22.38000001v118.61999999a22.98000001 22.98000001 0 0 1-23.58000001 22.38000001 22.98000001 22.98000001 0 0 1-23.58000001-22.38000001V519.2c0-12.36 10.56-22.38000001 23.58000001-22.38000001V495.8zM649.4 538.94000001l-35.58000001 37.43999998 35.52 37.50000001c7.74000001 8.34000001 8.4 20.58000001 1.74000001 29.64l-1.74000001 1.92a20.4 20.4 0 0 1-29.81999999 0L572.6 596a22.86000001 22.86000001 0 0 1-6-19.68 23.16 23.16 0 0 1 6-19.62000001l46.92-49.37999999a20.4 20.4 0 0 1 29.82000001 0 22.56 22.56 0 0 1-2e-8 31.56z" fill="#4682f0" p-id="2452"></path></svg>