<?xml version="1.0" standalone="no"?><!DOCTYPE svg PUBLIC "-//W3C//DTD SVG 1.1//EN" "http://www.w3.org/Graphics/SVG/1.1/DTD/svg11.dtd"><svg t="1735222862223" class="icon" viewBox="0 0 1024 1024" version="1.1" xmlns="http://www.w3.org/2000/svg" p-id="3453" xmlns:xlink="http://www.w3.org/1999/xlink" width="200" height="200"><path d="M32 32m192 0l576 0q192 0 192 192l0 576q0 192-192 192l-576 0q-192 0-192-192l0-576q0-192 192-192Z" fill="#4682f0" p-id="3454"></path><path d="M184.32 184.32m72.81777813 0l509.72444374 0q72.81777813 0 72.81777813 72.81777813l0 509.72444374q0 72.81777813-72.81777813 72.81777813l-509.72444374 0q-72.81777813 0-72.81777813-72.81777813l0-509.72444374q0-72.81777813 72.81777813-72.81777813Z" fill="#FFFFFF" p-id="3455"></path><path d="M288.00000031 224h447.99999938a64.00000031 64.00000031 0 0 1 64.00000031 64.00000031v48H224V288.00000031a64.00000031 64.00000031 0 0 1 64.00000031-64.00000031z" fill="#E6ECFF" p-id="3456"></path><path d="M266.24 248.0355552m-27.30666667 0a27.30666667 27.30666667 0 1 0 54.61333334 0 27.30666667 27.30666667 0 1 0-54.61333334 0Z" fill="#4682f0" p-id="3457"></path><path d="M348.16 248.0355552m-27.30666667 0a27.30666667 27.30666667 0 1 0 54.61333334 0 27.30666667 27.30666667 0 1 0-54.61333334 0Z" fill="#879EFF" p-id="3458"></path><path d="M430.08 248.0355552m-27.30666667 0a27.30666667 27.30666667 0 1 0 54.61333334 0 27.30666667 27.30666667 0 1 0-54.61333334 0Z" fill="#CBD5FF" p-id="3459"></path><path d="M385.83409813 434.57649813a21.82712853 21.82712853 0 0 0-29.94631146 3.2768L270.8912352 540.08945813a19.86104853 19.86104853 0 0 0 0 25.56814187l84.97834667 102.2543648c7.45472 8.40135147 20.48 9.58464 29.43658666 2.67605333 8.95658667-6.90858667 10.59498667-19.41504 3.7046048-28.24419626l-74.35605333-89.56586667 74.3651552-89.5840704a19.93386667 19.93386667 0 0 0-3.19488-28.6264896zM638.16590187 434.57649813a21.82712853 21.82712853 0 0 1 29.94631146 3.2768l84.98744854 102.24526187c6.21681813 7.4729248 6.21681813 18.09521813 0 25.56814187L668.1213152 667.92106667c-7.45472 8.40135147-20.48 9.58464-29.43658667 2.67605333-8.95658667-6.90858667-10.59498667-19.41504-3.70460373-28.2441952l74.35605333-89.56586667-74.36515626-89.58407146a19.93386667 19.93386667 0 0 1 3.19488-28.62648854z" fill="#879EFF" p-id="3460"></path><path d="M544.768 385.024a20.9078048 20.9078048 0 0 0-15.6285152 2.82168853 20.45269333 20.45269333 0 0 0-9.0112 12.93425814l-62.07715627 286.3104a20.24334187 20.24334187 0 0 0 2.4940096 15.9561952c3.00373333 4.76046187 7.86432 8.08277333 13.43488 9.1932448h4.34176a20.64384 20.64384 0 0 0 20.69845334-16.1564448l62.09536-286.30129707a20.2524448 20.2524448 0 0 0-2.8216896-15.8287648 20.7075552 20.7075552 0 0 0-13.53500374-8.92017813z" fill="#4682f0" p-id="3461"></path></svg>