<?xml version="1.0" standalone="no"?><!DOCTYPE svg PUBLIC "-//W3C//DTD SVG 1.1//EN" "http://www.w3.org/Graphics/SVG/1.1/DTD/svg11.dtd"><svg t="1735223313033" class="icon" viewBox="0 0 1024 1024" version="1.1" xmlns="http://www.w3.org/2000/svg" p-id="2608" xmlns:xlink="http://www.w3.org/1999/xlink" width="200" height="200"><path d="M32 257.8823525a225.8823525 225.8823525 0 0 1 225.8823525-225.8823525h508.235295a225.8823525 225.8823525 0 0 1 225.8823525 225.8823525v508.235295a225.8823525 225.8823525 0 0 1-225.8823525 225.8823525H257.8823525a225.8823525 225.8823525 0 0 1-225.8823525-225.8823525V257.8823525z" fill="#4682f0" p-id="2609"></path><path d="M340.931765 388.969412a120.621176 120.621176 0 1 0 115.260235 209.799529l70.776471 97.490824a241.091765 241.091765 0 1 1 82.522353-283.587765c15.751529 39.936 14.51670599 83.546353 13.763764 110.290824-0.150588 4.879059-0.271059 9.216-0.271059 12.860235 0 22.648471 5.81270601 48.519529 18.22117701 66.83105901 10.24 15.058824 26.65411801 28.310588 61.10870599 28.310588 31.804235 0 49.152-10.72188201 59.331764-22.40753001 11.264-12.950588 18.97411801-33.370353 18.97411801-59.452235 0-18.642824-9.39670601-39.574588-27.16611801-53.067294-16.022588-12.137412-43.55011799-21.594353-86.768941-8.734118l-34.42447-115.440941c75.926588-22.618353 144.112941-9.637647 193.987764 28.19011801 48.128 36.502588 74.842353 93.093647 74.84235301 149.08235299 0 48.489412-14.245647 99.087059-48.60988201 138.541176-35.418353 40.719059-87.341176 63.728941-150.166588 63.728941-75.29411799 0-128.662588-33.792-160.768-81.106823-29.936941-44.06211799-39.032471-95.864471-39.032471-134.475294 0-9.39670601 0.150588-17.58870599 0.24094101-24.847059 0.421647-25.05788199 0.632471-38.972235-5.33082301-54.09129399a120.621176 120.621176 0 0 0-156.491294-67.91529401z" fill="#ffffff" p-id="2610"></path></svg>