<?xml version="1.0" standalone="no"?><!DOCTYPE svg PUBLIC "-//W3C//DTD SVG 1.1//EN" "http://www.w3.org/Graphics/SVG/1.1/DTD/svg11.dtd"><svg t="1735223217369" class="icon" viewBox="0 0 1024 1024" version="1.1" xmlns="http://www.w3.org/2000/svg" p-id="1977" xmlns:xlink="http://www.w3.org/1999/xlink" width="200" height="200"><path d="M32 32m120 0l720 0q120 0 120 120l0 719.89999969q0 120-120 120l-720 0q-120 0-120-120l0-719.89999969q0-120 120-120Z" fill="#4682f0" p-id="1978"></path><path d="M847.16586682 415.63981365v351.92416072a83.79146629 83.79146629 0 0 1-83.79146631 83.7914663h-301.64928062a20.94786619 20.94786619 0 0 1-20.94786617-20.94786618V415.63981365c0-11.56322243 9.38464377-20.94786619 20.94786617-20.94786773h364.49288072c11.56322243 0 20.94786619 9.38464377 20.94786621 20.94786773z m-41.89573238-50.27488007h-586.54026888c-23.12644485 0-41.89573393-18.76928909-41.89573238-41.89573394v-58.65402627c0-46.21937363 37.57209425-83.79146629 83.79146631-83.7914679h502.74880102c46.21937363 0 83.79146629 37.57209425 83.79146631 83.7914679v58.65402627c0 23.12644485-18.76928909 41.89573393-41.89573238 41.89573394z" fill="#ffffff" p-id="1979"></path><path d="M369.55450587 851.35544067H260.62559949a83.89201607 83.89201607 0 0 1-83.79146631-83.7914663V436.58767986c0-23.12644485 18.76928909-41.89573393 41.89573238-41.89573394h150.82464031c23.12644485 0 41.89573393 18.76928909 41.89573393 41.89573394v372.87202687c0 23.12644485-18.76928909 41.89573393-41.89573393 41.89573394z" fill="#f4f2f2" p-id="1980"></path></svg>