<?xml version="1.0" standalone="no"?><!DOCTYPE svg PUBLIC "-//W3C//DTD SVG 1.1//EN" "http://www.w3.org/Graphics/SVG/1.1/DTD/svg11.dtd"><svg t="1735222585191" class="icon" viewBox="0 0 1024 1024" version="1.1" xmlns="http://www.w3.org/2000/svg" p-id="3302" xmlns:xlink="http://www.w3.org/1999/xlink" width="200" height="200"><path d="M32 32h374.53714313a68.57142844 68.57142844 0 0 1 68.57142843 68.57142844v374.53714312H100.57142844a68.57142844 68.57142844 0 0 1-68.57142844-68.57142844V32z m960 0v374.53714313a68.57142844 68.57142844 0 0 1-68.57142844 68.57142843H548.89142844V100.57142844a68.57142844 68.57142844 0 0 1 68.57142844-68.57142844H992zM32 992V617.46285687a68.57142844 68.57142844 0 0 1 68.57142844-68.57142843h374.53714312V923.42857156a68.57142844 68.57142844 0 0 1-68.57142844 68.57142844H32z m960 0H617.46285687a68.57142844 68.57142844 0 0 1-68.57142843-68.57142844V548.89142844H923.42857156a68.57142844 68.57142844 0 0 1 68.57142844 68.57142844V992z" fill="#4682f0" p-id="3303"></path></svg>
