<?xml version="1.0" standalone="no"?><!DOCTYPE svg PUBLIC "-//W3C//DTD SVG 1.1//EN" "http://www.w3.org/Graphics/SVG/1.1/DTD/svg11.dtd"><svg t="1735224067983" class="icon" viewBox="0 0 1024 1024" version="1.1" xmlns="http://www.w3.org/2000/svg" p-id="1977" xmlns:xlink="http://www.w3.org/1999/xlink" width="200" height="200"><path d="M249.28 33.28c118.29333333 0 214.08 95.89333333 214.08 214.08v214.08H249.28c-118.18666667 2.13333333-215.89333333-91.94666667-218.02666667-210.13333333s91.94666667-215.89333333 210.13333334-218.02666667h7.89333333z m0 528.96h214.08v214.08c0 118.29333333-95.89333333 214.08-214.08 214.08S35.2 894.61333333 35.2 776.32c0-118.18666667 95.89333333-214.08 214.08-214.08z m529.06666667-528.96c118.18666667 2.13333333 212.26666667 99.84 210.13333333 218.02666667-2.13333333 115.2-94.93333333 208-210.13333333 210.13333333H564.16V247.25333333C564.26666667 129.06666667 660.05333333 33.28 778.34666667 33.28zM564.16 562.24h214.08c118.29333333 0 214.08 95.89333333 214.08 214.08s-95.89333333 214.08-214.08 214.08c-118.29333333 0-214.08-95.89333333-214.08-214.08V562.24z" fill="#4682f0" p-id="1978"></path></svg>