<?xml version="1.0" standalone="no"?><!DOCTYPE svg PUBLIC "-//W3C//DTD SVG 1.1//EN" "http://www.w3.org/Graphics/SVG/1.1/DTD/svg11.dtd"><svg t="1735223245308" class="icon" viewBox="0 0 1024 1024" version="1.1" xmlns="http://www.w3.org/2000/svg" p-id="2136" xmlns:xlink="http://www.w3.org/1999/xlink" width="200" height="200"><path d="M842.10725925 978.03377778H181.89274075c-75.24503703 0-135.92651852-60.68148148-135.92651853-135.92651853V181.89274075c0-75.24503703 60.68148148-135.92651852 135.92651853-135.92651853h660.2145185c75.24503703 0 135.92651852 60.68148148 135.92651853 135.92651853v660.2145185c0 75.24503703-60.68148148 135.92651852-135.92651853 135.92651853z" fill="#4682f0" p-id="2137"></path><path d="M525.34992592 569.04059259c0 14.56355555 12.1362963 25.48622222 25.48622223 25.48622223h256.07585185c14.56355555 0 25.48622222-10.92266667 25.48622222-25.48622223v-100.73125926c0-14.56355555-12.1362963-25.48622222-25.48622222-25.48622222H550.83614815c-14.56355555 0-25.48622222 10.92266667-25.48622223 25.48622222v14.56355556h-103.15851851l-72.81777778-71.60414814c0-2.42725925 1.21362963-3.64088889 1.21362962-6.06814816v-70.39051851c42.47703703-13.34992592 64.32237037-59.46785185 50.97244445-100.73125926-13.34992592-42.47703703-59.46785185-64.32237037-100.73125925-50.97244445-42.47703703 13.34992592-64.32237037 59.46785185-50.97244445 100.73125926 7.28177778 23.05896297 25.48622222 42.47703703 49.75881482 50.97244445v69.17688889l-99.51762964 97.09037036c-9.70903703 9.70903703-9.70903703 25.48622222 0 35.19525926l99.51762964 97.09037038V740.16237037c0 14.56355555 12.1362963 25.48622222 25.48622221 25.48622222h200.24888889v27.91348149c0 14.56355555 12.1362963 25.48622222 25.48622223 25.48622222h256.07585185c14.56355555 0 25.48622222-10.92266667 25.48622222-25.48622222v-100.73125926c0-14.56355555-12.1362963-25.48622222-25.48622222-25.48622223H550.83614815c-14.56355555 0-25.48622222 10.92266667-25.48622223 25.48622223v20.6317037H350.58725925v-89.8085926l89.8085926-88.59496295 2.42725926-2.42725927h82.52681481v36.40888889z m256.07585186 150.49007408v49.75881481H576.32237037v-10.92266666c9.70903703-9.70903703 9.70903703-25.48622222 0-35.19525927v-3.64088888h205.10340741zM385.78251852 519.28177778l-66.74962963 65.536-66.74962964-65.536 66.74962964-65.536 66.74962963 65.536z m395.64325926-25.48622223v49.75881482H576.32237037v-16.99081482c8.49540741-8.49540741 9.70903703-23.05896297 2.42725926-32.768h202.67614815z" fill="#FFFFFF" p-id="2138"></path></svg>